<?xml version="1.0" encoding="UTF-8"?><svg id="Layer_2" xmlns="http://www.w3.org/2000/svg" viewBox="0 0 945.23 980.33"><defs><style>.cls-1{fill:#423e3a;}.cls-2{fill:#433f3b;}.cls-3{fill:#403c38;}.cls-4{fill:#413d39;}.cls-5{fill:#3e3a36;}.cls-6{fill:#3e3a37;}.cls-7{fill:#3f3b37;}.cls-8{fill:#3d3936;}.cls-9{fill:#3d3935;}</style></defs><g id="Layer_1-2"><g><path class="cls-9" d="M302.26,705.09c-15.5,.35-30.16-.94-44.71,.75-12.03,1.4-22.58,6.63-31.57,14.85-1.1,1-2.12,2.28-3.43,2.8-1.66,.66-3.42,.69-2.61-2.21,2.36-8.5,4.72-17,6.85-25.56,.85-3.4,3.27-2.71,5.48-2.71,26.62-.02,53.25-.02,79.87-.02,14.81,0,29.62,0,44.43,0q6.33,0,3.45,5.92c-27.11,55.6-54.23,111.19-81.34,166.79-2.6,5.33-2.59,5.37,3.48,5.34,10.65-.05,21.32,.3,31.94-.33,14.58-.87,26.51-7.18,34.83-19.5,1.57-2.33,3.04-3.84,6.03-2.54,3.02,1.32,1.1,3.47,.83,5.12-1.39,8.54-3.12,17.02-4.46,25.57-.47,3-1.49,4.15-4.73,4.15-41.93-.11-83.87-.13-125.8,0-5.47,.02-3.63-2.34-2.33-5.01,26.66-55.09,53.3-110.18,79.95-165.27,1.15-2.37,2.27-4.76,3.87-8.14Z"/><path class="cls-9" d="M821.1,786.78c-2.94,1.59-3.88,3.8-3.86,6.99,.13,21.98,.06,43.96,.07,65.94,0,3.83,.05,7.67,1.28,11.36,1.27,3.82,3.35,6.94,7.55,7.9,1.68,.38,2.75,.98,2.53,2.94-.26,2.37-2.06,1.75-3.41,1.75-15.98,.04-31.96,.04-47.93,0-1.34,0-3.2,.7-3.65-1.51-.44-2.2,.98-2.77,2.79-3.24,5.33-1.39,7.11-5.75,7.93-10.48,.62-3.59,.76-7.29,.76-10.94,.05-46.13,.05-92.25,0-138.38,0-3.81-.19-7.69-.89-11.43-.89-4.76-3-8.92-8.42-10.02-1.59-.32-2.29-1.08-2.22-2.7,.08-1.94,1.44-1.95,2.81-1.95,16.48,0,32.95,0,49.43,0,1.34,0,2.77-.12,2.83,1.87,.05,1.5-.34,2.43-2.06,2.79-6.36,1.35-8.73,6.5-8.82,11.88-.36,23.39-.15,46.79-.15,70.25,1.51-.05,2-1.26,2.72-2.05,19.5-20.97,38.97-41.97,58.43-62.97,3.4-3.67,6.69-7.44,9.33-11.69,1.24-1.99,2.98-3.79,.2-6.44-1.7-1.62-.72-3.7,2.29-3.68,8.32,.06,16.64,.02,24.96,.03,1.43,0,2.7,.2,2.71,2.08,.01,1.35-.5,2.21-1.91,2.45-9.95,1.64-17.12,8.03-23.79,14.75-15.82,15.96-31.28,32.27-46.94,48.4-1.47,1.51-1.98,2.59-.54,4.57,22.24,30.73,42.74,62.74,67.27,91.78,4.08,4.83,8.51,9.36,13.46,13.34,4.85,3.9,10,7.3,16.36,8.01,2.79,.31,3.03,1.86,3.02,4.1-.02,2.34-1.31,2.68-3.21,2.71-19.11,.37-37.6-1.63-53.7-13.37-10.23-7.46-18.22-17-25.54-27.16-13.04-18.09-26.01-36.23-39.02-54.34-.86-1.2-1.78-2.36-2.65-3.52Z"/><path class="cls-9" d="M663.79,883.44c-20.14,0-40.28,.02-60.42-.05-1.57,0-3.94,1.1-4.39-1.8-.43-2.8,1.92-2.56,3.55-3.12,4.3-1.48,6.16-5.04,6.96-9.06,.71-3.56,1.04-7.26,1.04-10.91,.07-46.79,.04-93.59,.04-140.38,0-4.34-.22-8.65-1.58-12.82-1.21-3.69-3.3-6.55-7.26-7.54-1.55-.38-2.95-.67-2.79-2.75,.21-2.67,2.26-1.99,3.76-1.99,20.14-.04,40.28-.03,60.42-.03,20.14,0,40.28,.09,60.42-.08,3.84-.03,5.27,.88,5.07,4.96-.34,6.98-.08,13.98-.11,20.98,0,1.1,.4,2.47-1.05,3.03-1.56,.6-2.47-.36-3.26-1.55-9.16-13.91-23.04-18.51-38.66-19.04-13.13-.44-26.29-.07-39.44-.24-3-.04-3.54,1.13-3.53,3.8,.08,23.15,.05,46.29,.04,69.44,0,1.91-.21,3.63,2.69,3.52,14.28-.53,28.64,1.19,42.84-1.37,6.26-1.13,12.35-2.96,16.33-8.6,.88-1.25,1.99-1.78,3.43-1.25,1.5,.55,1.02,1.95,1.03,3.01,.04,8.83,.04,17.65,0,26.48,0,1.22,.43,2.81-1.53,3.16-1.38,.24-2.13-.57-2.81-1.61-5.27-8.14-13.73-10.13-22.42-11.09-12.1-1.34-24.28-.41-36.42-.67-2.35-.05-3.17,.68-3.17,3.12,.07,27.64,.07,55.29,0,82.93,0,2.52,.66,3.52,3.35,3.49,14.64-.18,29.31,.32,43.93-.4,15.32-.76,28.85-6.28,39.08-18.37,.95-1.12,1.84-2.72,3.59-2.12,2.15,.74,.89,2.57,.69,3.85-1.05,6.74-2.49,13.44-3.32,20.2-.5,4.08-2.32,4.99-6.18,4.96-19.97-.19-39.95-.09-59.92-.09Z"/><path class="cls-9" d="M90.26,649.55c.08,13.91-9.16,23.24-23.01,23.22-13.66-.02-22.87-9.15-22.97-22.78-.11-13.82,9.28-23.31,23.03-23.29,13.55,.01,22.87,9.29,22.96,22.85Z"/><path class="cls-9" d="M151.42,649.61c.07,13.9-9.21,23.21-23.08,23.16-13.62-.05-22.9-9.27-23.01-22.85-.11-13.65,9.54-23.31,23.2-23.24,13.63,.07,22.82,9.27,22.89,22.93Z"/><path class="cls-5" d="M336.24,969.03c0,2,.02,3.99,0,5.99-.04,4.28-2.61,6.42-6.1,4.14-2.41-1.57-3.67-.59-5.49-.04-14.2,4.33-26.1-5.66-23.88-20.01,1.04-6.74,4.77-11.34,11.15-13.4,7.13-2.3,14.11-1.77,20.47,2.66,1.04,.73,1.98,1.76,.48,2.66-1.87,1.13-2.41,5.12-5.64,3.21-2.23-1.32-4.47-2.29-6.97-2.34-4.33-.09-8.49,.67-10.31,5.32-1.73,4.4-1.97,9.03,1.51,12.65,3.51,3.65,8.16,3.29,12.59,1.79,2.05-.7,4.34-2.24,3.8-4.6-.51-2.23-3.13-.66-4.73-1.15-2.22-.68-6.04,2.02-6.13-3.2-.05-3.12,.61-4.74,4.07-4.25,1.47,.21,2.99,.03,4.49,.03q10.71,0,10.71,10.55Z"/><path class="cls-5" d="M186.5,958.91c0,6.04-.13,10.83,.05,15.6,.12,3.22-.11,5.13-4.35,5.14-4.58,.02-4.08-2.53-4.06-5.39,.04-7.98-.06-15.95,.07-23.93,.03-1.79-1.23-4.5,1.43-5.18,2.68-.68,5.41-.54,7.58,2.2,4.54,5.72,9.42,11.16,15.24,17.99,0-5.97,.33-10.79-.09-15.54-.42-4.68,1.85-5.19,5.57-4.92,2.16,.16,2.89,.97,2.88,3.04-.05,9.47,0,18.94-.03,28.41,0,1.27,.32,2.99-1.61,3.05-2.38,.08-4.88,.77-6.86-1.68-4.9-6.04-10-11.92-15.82-18.81Z"/><path class="cls-5" d="M759.81,968.89c0,1.99,.01,3.99,0,5.98-.03,4.5-2.19,6.47-5.9,4.33-2.4-1.39-3.73-.57-5.66-.1-7.57,1.83-14.76,1.09-20.14-5.04-5.12-5.83-5.22-12.88-2.29-19.7,3.14-7.3,9.63-9.62,17.07-9.88,3.54-.12,7.02,.48,10.12,2.15,1.6,.86,5.13,1.34,3.56,4.02-1.22,2.08-2.75,5.95-7.22,2.89-4.07-2.79-9.03-2.55-13.15,.36-4.05,2.86-4.11,7.35-3.31,11.78,.66,3.66,3,5.98,6.62,6.56,3.98,.63,8.03,.86,11.03-2.73,.64-.76,1.33-1.62,.98-2.68-.42-1.26-1.62-.84-2.54-.89-1.33-.07-2.68-.18-3.98,0-3.3,.46-3.75-1.2-3.81-4.05-.06-3.08,1.26-3.59,3.86-3.45,3.31,.17,6.67,.33,9.96-.03,4.07-.44,5.33,1.17,4.84,4.99-.23,1.8-.04,3.65-.04,5.48Z"/><path class="cls-9" d="M261.01,958.77c0,6.16-.14,10.98,.05,15.79,.13,3.24-.09,5.18-4.35,5.08-3.94-.09-4.15-1.85-4.1-4.88,.14-8.31-.01-16.62,.1-24.92,.02-1.62-1.09-4.09,1.44-4.65,2.33-.52,4.91-.9,6.87,1.47,4.55,5.5,9.21,10.91,13.82,16.37,.49,.58,.95,1.19,2.16,2.72,0-6.4,.24-11.65-.08-16.86-.22-3.61,1.42-3.98,4.37-4.01,2.93-.04,4.09,.66,4.01,3.85-.21,8.63,0,17.28-.13,25.92-.02,1.6,1.16,4.15-1.27,4.64-2.43,.49-5.13,.93-7.23-1.75-4.3-5.48-8.91-10.73-13.39-16.07-.49-.59-.99-1.17-2.27-2.69Z"/><path class="cls-5" d="M497.09,962.08c0-4.66,.14-9.32-.04-13.98-.13-3.39,1.98-3.22,4.23-3.16,2.13,.06,4.62-.46,4.29,3.05-.03,.33-.03,.67,0,1,.33,3.07-1.34,8.12,.72,8.82,4.18,1.42,9.13,.6,13.77,.6,1.72,0,1.47-1.44,1.48-2.57,.01-2,.05-3.99,0-5.99-.07-2.71-.48-5.08,3.82-5.05,4.07,.02,4.56,1.68,4.49,5.07-.19,8.65-.21,17.31,0,25.96,.09,3.36-1.41,3.77-4.17,3.74-2.62-.03-4.2-.11-4.23-3.61-.09-9.98-.29-9.66-10.13-10.1-4.99-.22-6.56,1.35-5.77,6.04,.22,1.29-.13,2.68,.06,3.98,.5,3.48-1.48,3.74-4.17,3.66-2.47-.07-4.61,.18-4.4-3.48,.27-4.64,.06-9.31,.07-13.97Z"/><path class="cls-5" d="M776.44,962.05c0-4.66,.15-9.32-.05-13.98-.14-3.46,2.05-3.1,4.26-3.15,2.29-.05,4.23-.19,4.1,3.2-.13,3.27-1.51,7.56,.59,9.59,2.3,2.23,6.67,.3,10.07,.81,4.43,.67,6.02-.99,5.29-5.34-.25-1.46,.12-3.01-.07-4.48-.43-3.3,1.24-3.85,4.09-3.84,2.94,.01,4.59,.36,4.48,4.02-.26,8.98-.24,17.97,0,26.95,.09,3.42-1.45,3.71-4.2,3.72-2.92,0-4.46-.33-4.44-3.98,.06-9.61-.15-9.35-9.91-9.71-4.66-.17-6.9,.86-5.99,5.88,.23,1.29-.12,2.68,.07,3.98,.46,3.21-.99,3.88-3.94,3.85-3.01-.03-4.63-.49-4.39-4.05,.3-4.47,.07-8.98,.07-13.47Z"/><path class="cls-9" d="M411.25,972.29c6.18,0,11.61,.12,17.04-.05,2.63-.08,3.45,.81,3.41,3.42-.04,2.58-.44,3.96-3.52,3.89-8.14-.19-16.29,0-24.43-.12-1.6-.02-4.01,1.17-4.64-1.42-.51-2.07-.32-4.14,1.44-5.98,6.05-6.3,11.94-12.74,18.46-19.74-5.86,0-11.1-.12-16.33,.05-2.64,.09-3.48-.86-3.44-3.44,.04-2.49,.28-4.08,3.44-4.01,7.81,.17,15.62,0,23.43,.1,1.66,.02,4.04-1.06,4.86,1.13,.9,2.4,.32,4.7-1.7,6.79-5.89,6.09-11.56,12.39-18.02,19.37Z"/><path class="cls-5" d="M675.59,956.46c0-2.16,.09-4.33-.03-6.48-.18-3.08-.15-5.22,4.23-5.2,4.51,.03,4.17,2.45,4.13,5.38-.06,4.49-.14,8.99,.05,13.47,.28,6.7,2.62,8.97,8.69,8.87,5.76-.09,7.95-2.4,8.13-8.9,.14-4.99,.22-9.99-.01-14.96-.16-3.36,1.48-3.8,4.23-3.74,2.59,.05,4.5,.1,4.33,3.62-.25,5.31,.1,10.65-.14,15.96-.47,10.35-6.71,15.85-17.33,15.56-10.48-.29-15.99-5.72-16.27-16.09-.07-2.49-.01-4.99-.02-7.48Z"/><path class="cls-4" d="M57.09,944.94c4.15,0,8.32,.15,12.46-.05,3.15-.16,3.42,1.5,3.46,4,.04,2.53-.72,3.42-3.39,3.5-8.62,.26-8.62,.38-8.62,8.94,0,4.99-.17,9.98,.05,14.96,.17,3.88-2.37,3.1-4.62,3.24-2.5,.16-4.06-.21-3.96-3.39,.21-6.64-.08-13.3,.13-19.95,.1-2.98-.61-4.36-3.8-3.91-1.47,.21-3-.1-4.48,.06-2.77,.3-3.85-.67-3.78-3.58,.06-2.63,.58-4.01,3.59-3.87,4.31,.2,8.64,.05,12.96,.05Z"/><path class="cls-6" d="M886.34,944.95c4.15,0,8.31,.17,12.44-.06,3.22-.18,3.81,1.25,3.86,4.12,.06,3.25-1.65,3.3-4.06,3.33-7.98,.1-7.97,.17-7.97,8.11,0,5.31-.15,10.63,.05,15.93,.13,3.44-2.01,3.13-4.21,3.12-2.17,0-4.31,.41-4.2-3.08,.21-6.47-.14-12.95,.14-19.42,.15-3.55-.59-5.39-4.53-4.73-1.29,.22-2.67-.1-3.97,.06-2.93,.37-3.62-.94-3.62-3.69,0-2.74,.73-3.89,3.64-3.75,4.14,.2,8.29,.05,12.44,.05Z"/><path class="cls-5" d="M647.48,979.48c-3.59-.5-9.45,2-12-1.02-2.16-2.57-.71-8.22-.76-12.51-.06-5.98,.14-11.96-.07-17.93-.13-3.52,2.07-3.06,4.22-3.08,2.2-.02,4.3-.34,4.21,3.11-.18,6.97,.07,13.95-.11,20.92-.07,2.6,.62,3.49,3.28,3.37,4.47-.2,8.96,.08,13.44-.1,2.69-.11,2.98,1.23,2.85,3.35-.12,1.95,.48,4.1-2.8,3.94-3.81-.19-7.63-.04-12.25-.04Z"/><path class="cls-5" d="M559.09,979.48c-3.49-.34-9.08,1.86-11.72-.76-2.87-2.83-.79-8.5-.93-12.93-.18-5.82,.12-11.65-.1-17.47-.12-3.16,1.41-3.5,3.93-3.43,2.48,.07,4.57-.1,4.46,3.52-.21,6.65,.08,13.31-.12,19.96-.09,2.94,.54,4.2,3.78,3.97,4.14-.29,8.32,.09,12.47-.12,2.9-.15,3.2,1.27,3.17,3.61-.03,2.27-.21,3.85-3.15,3.69-3.65-.2-7.32-.05-11.77-.05Z"/><path class="cls-9" d="M111.9,961.86c0-4.48,.23-8.98-.07-13.45-.25-3.67,1.85-3.41,4.33-3.52,2.78-.12,4.23,.32,4.1,3.7-.28,6.8,.04,13.62-.14,20.42-.07,2.64,.74,3.43,3.32,3.32,4.31-.19,8.64,.14,12.94-.11,3.02-.18,3.1,1.41,3.12,3.64,.02,2.3-.26,3.74-3.16,3.67-7.13-.17-14.28-.14-21.41,0-2.48,.05-3.11-.94-3.06-3.22,.12-4.81,.04-9.63,.04-14.45Z"/><path class="cls-1" d="M95.1,962.24c0,4.5-.19,9,.07,13.49,.19,3.22-1.12,3.99-4.04,3.84-2.65-.14-4.77,.16-4.63-3.81,.31-8.98,.28-17.99,0-26.97-.12-3.83,1.84-3.81,4.61-3.92,2.96-.12,4.24,.68,4.06,3.89-.25,4.48-.06,8.99-.06,13.49Z"/><path class="cls-2" d="M227.45,961.87c0-4.32,.24-8.66-.07-12.96-.26-3.64,1.5-4.06,4.45-4.06,2.82,0,4.25,.54,4.18,3.83-.19,8.97-.24,17.96,.02,26.92,.11,3.66-1.57,3.87-4.47,3.99-3.35,.14-4.34-1.04-4.17-4.26,.24-4.48,.06-8.97,.06-13.46Z"/><path class="cls-2" d="M383.5,962.25c0,4.65-.17,9.3,.06,13.94,.16,3.22-1.53,3.45-3.99,3.35-2.34-.1-4.61,.43-4.53-3.34,.2-9.29,.19-18.59,0-27.88-.07-3.67,2.1-3.36,4.52-3.43,2.5-.08,4.13,.27,3.99,3.42-.2,4.64-.05,9.29-.05,13.94Z"/><path class="cls-3" d="M924.66,962.34c0,4.31-.16,8.62,.06,12.91,.16,3.09-.62,4.35-4.04,4.36-3.52,0-4.51-1.1-4.42-4.54,.23-8.61,.18-17.22,.02-25.83-.06-3.09,.67-4.38,4.09-4.43,3.61-.05,4.56,1.23,4.36,4.61-.26,4.29-.06,8.61-.06,12.91Z"/><path class="cls-7" d="M595.84,962.64c0,4.64-.15,9.28,.05,13.91,.13,3.1-1.7,3.11-3.8,2.92-1.92-.17-4.57,.97-4.55-2.71,.06-9.61,.1-19.22-.02-28.82-.04-3.5,2.26-2.9,4.37-3.02,2.39-.13,4.16,.06,4.01,3.3-.23,4.79-.06,9.6-.06,14.41Z"/><path class="cls-3" d="M153.07,961.82c0-4.64,.14-9.29-.05-13.93-.12-3.09,1.73-3.08,3.83-2.94,1.97,.13,4.55-.81,4.53,2.8-.06,9.62-.1,19.24,.03,28.86,.05,3.64-2.4,2.75-4.4,2.89-2.36,.17-4.17,.05-4-3.25,.25-4.8,.06-9.62,.06-14.43Z"/><path class="cls-9" d="M727.63,248.59c-3.21-24.35-17.23-40.96-40.91-48.69-2.74-.9-3.9-2.33-4.65-5.03-4.3-15.45-10.48-30.16-18.31-44.13-1.58-2.81-1.58-4.92-.08-7.77,6.49-12.37,8.52-25.47,5.41-39.19-8.58-37.84-49.03-56.83-84.02-39.35-2.89,1.44-4.93,1.44-7.74-.13-13.98-7.82-28.72-13.89-44.15-18.21-2.54-.71-3.81-1.82-4.63-4.4C520.4,16.24,498.39-.06,472.53,0c-25.75,.06-47.61,16.25-55.67,41.45-.88,2.74-2.23,3.93-4.95,4.69-15.58,4.37-30.48,10.52-44.57,18.48-2.55,1.44-4.4,1.2-6.86-.08-12.9-6.69-26.57-8.47-40.68-5.11-37.11,8.84-55.48,48.8-38.3,83.29,1.52,3.05,1.55,5.26-.11,8.23-7.79,14-14,28.7-18.22,44.17-.76,2.79-2.19,4.06-4.85,4.82-4.8,1.37-9.46,3.17-13.63,6.03-20.16,13.83-30.39,32.94-26.96,57.27,3.4,24.08,17.5,40.5,41,48.12,2.29,.74,3.65,1.72,4.3,4.15,4.29,15.99,10.74,31.11,18.81,45.53,1.42,2.55,1.2,4.47-.09,6.91-4.42,8.36-6.96,17.25-6.84,26.79-.02,43.9,45.43,71.84,85.07,52.24,2.49-1.23,4.44-2.03,7.3-.42,14.1,7.97,28.99,14.14,44.6,18.48,2.69,.75,4.09,1.93,4.99,4.7,8.15,25.23,29.94,41.36,55.71,41.45,25.55,.09,47.87-16.31,55.87-41.3,.87-2.72,2.11-4.05,4.86-4.81,15.29-4.24,29.88-10.27,43.74-17.97,2.89-1.61,5.07-1.89,8.17-.26,12.55,6.58,25.97,8.29,39.72,5.06,37.53-8.81,56.11-48.7,38.92-83.35-1.46-2.94-1.77-5.18-.06-8.19,7.98-14.09,14.1-29.01,18.47-44.61,.67-2.41,1.75-3.63,4.11-4.31,4.8-1.39,9.52-3.06,13.71-5.88,20.23-13.64,30.77-32.54,27.55-56.97Zm-115.92-153.57c11.58-.13,21.39,9.52,21.47,21.12,.09,11.66-9.5,21.37-21.14,21.43-11.71,.06-21.37-9.45-21.44-21.11-.07-11.68,9.41-21.32,21.11-21.44Zm-139.03-57.81c11.6,.03,21.19,9.64,21.22,21.27,.02,11.74-9.36,21.26-21.05,21.35-11.87,.09-21.72-9.69-21.59-21.43,.12-11.52,9.94-21.22,21.43-21.19Zm-139.32,57.8c11.64,0,21.37,9.68,21.37,21.25,0,11.64-9.64,21.28-21.3,21.31-11.64,.03-21.36-9.62-21.39-21.23-.03-11.52,9.78-21.34,21.32-21.33Zm-58.08,181.81c-11.67-.17-21.12-9.85-21-21.49,.12-11.57,9.84-21.01,21.57-20.92,11.99,.09,21.31,9.67,21.15,21.73-.16,11.6-9.87,20.85-21.71,20.68Zm58.24,139.32c-11.68,.09-21.43-9.5-21.48-21.12-.04-11.71,9.49-21.3,21.22-21.35,11.8-.05,21.41,9.4,21.46,21.1,.05,11.7-9.45,21.27-21.21,21.36Zm139.05,57.72c-11.79-.04-21.35-9.59-21.32-21.28,.03-11.72,9.6-21.13,21.44-21.1,11.88,.03,21.22,9.39,21.2,21.23-.02,11.81-9.49,21.2-21.32,21.16Zm139.3-57.75c-11.82-.02-21.29-9.47-21.27-21.22,.02-11.79,9.48-21.21,21.29-21.22,11.78,0,21.26,9.45,21.29,21.23,.04,11.68-9.55,21.22-21.31,21.2Zm27.96-106.64c-2.87,8.71-6.5,17.08-10.38,25.37-1.36,2.91-2.89,3.67-6.11,3.03-12.93-2.53-25.48-1.34-37.41,4.7-23.93,12.12-36.27,36.8-31.16,63.22,.77,3.96-.22,5.56-3.62,7.15-8,3.73-16.2,6.87-24.49,9.86-2.62,.95-3.7,.19-5.14-1.91-24.74-35.9-73.02-35.93-97.73-.07-1.4,2.03-2.4,2.97-5.11,2.01-8.62-3.07-17.14-6.31-25.39-10.28-2.93-1.41-3.49-3.01-2.86-6.2,6.41-32.36-13.35-62.05-45.62-68.68-3.56-.73-7.26-.83-11.22-1.26-3.84,.47-8.02,.7-12.07,1.56-2.79,.59-4.19,0-5.43-2.59-3.81-7.96-7.18-16.08-10.21-24.37-1.25-3.43-.64-5.16,2.46-7.24,25.32-16.98,33.16-48.86,18.85-75.78-4.63-8.71-11.11-15.79-19.46-21-2.67-1.67-3.03-3.17-2.04-6.05,2.86-8.36,6.36-16.42,10.05-24.43,1.48-3.2,3.11-3.72,6.52-3.17,24.78,4.05,44.98-3.64,59.59-24.42,9.33-13.27,11.62-28.14,8.6-43.85-.67-3.46,.02-5.06,3.15-6.54,7.98-3.78,16.21-6.89,24.49-9.92,3.01-1.1,4.28-.33,5.97,2.16,14.17,20.82,36.9,30.13,61.23,24.93,15.19-3.25,27.07-11.73,35.65-24.59,1.96-2.93,3.53-3.56,6.79-2.33,8.09,3.05,16.17,6.07,24,9.8,3.16,1.51,3.75,3.11,3.09,6.53-6.17,32.1,13.15,61.36,44.96,68.27,7.9,1.72,15.9,1.69,23.78-.11,3.05-.7,4.47,.16,5.76,2.85,3.96,8.26,7.52,16.66,10.46,25.34,.85,2.51,.43,3.78-1.8,5.23-36.28,23.58-35.79,74.9,.17,97.94,2.05,1.31,2.47,2.48,1.7,4.84Zm29.68-32.64c-11.85-.03-21.18-9.42-21.16-21.29,.02-11.84,9.44-21.17,21.31-21.12,11.9,.05,21.25,9.43,21.21,21.27-.04,11.82-9.48,21.17-21.36,21.14Z"/><path class="cls-9" d="M563.71,805.56c-7.9-9.69-18.83-15.1-30.44-19.17-7.46-2.62-15.23-4.14-22.96-6.1,8.59-2.48,16.89-5.23,24.55-9.6,10.3-5.88,18.92-13.33,20.86-25.83,2.46-15.85-4.87-27.39-17.26-36.18-11.84-8.39-25.42-12.59-39.63-13.98-37.03-3.63-74.19-.96-111.29-1.69-1.29-.03-2.81-.17-2.87,1.84-.04,1.55,.62,2.44,2.22,2.77,5.64,1.17,7.68,5.49,8.58,10.46,.56,3.09,.74,6.29,.74,9.44,.04,47.14,.03,94.27,.03,141.41,0,4-.08,8-1.32,11.87-1.06,3.29-2.78,6.03-6.11,7.49-1.65,.72-4.53,.25-3.92,3.35,.59,3.03,3.23,1.73,4.94,1.74,30.8,.08,61.6,.07,92.39,.05,9.17,0,18.31-.5,27.37-1.92,17.49-2.75,34.17-7.62,47.95-19.45,17.93-15.39,20.59-38.79,6.15-56.51Zm-119.89-32.92c.14-10.65,.05-21.3,.05-31.95,0-10.48,.07-20.97-.05-31.45-.03-2.8,.42-4.24,3.74-4.17,9.31,.21,18.63-.13,27.94,.13,20.77,.58,33.53,14.74,32.58,35.84-.94,20.87-14,34.33-34.85,35.51-8.46,.48-16.96,.13-25.43,.48-3.57,.15-4.03-1.39-3.99-4.38Zm42.78,97.91c-13.21,1.8-26.58,.48-39.88,.81-3.19,.08-2.86-1.94-2.86-3.96,0-12.65,0-25.29,0-37.94,0-12.48,.02-24.96-.02-37.44,0-2.17-.06-3.83,3-3.73,13.27,.41,26.65-1.08,39.73,2.26,15.17,3.86,28.02,11.02,33.41,26.83,7.55,22.17-3.83,49.16-33.39,53.19Z"/><path class="cls-9" d="M190.62,755.16c-9.34-30.24-29.48-50.24-59.86-59.01-23.93-6.91-48.07-6.44-71.69,1.93-23.69,8.39-40.63,24.34-50.4,47.49-10.5,24.9-11.26,50.47-3.4,76.19,6.75,22.1,20.08,39.26,40.37,50.6,16.08,8.99,33.59,12.34,51.85,12.39,7,.05,13.98-.38,20.87-1.6,33.1-5.85,57.31-23.28,69.85-55.04,9.44-23.91,9.97-48.47,2.41-72.95Zm-55.55,83.75c-2.76,8.27-6.82,15.89-12.74,22.41-13.93,15.34-35.39,15.24-49.04-.37-10.7-12.24-14.93-27.27-17.73-42.8-1.77-9.85-2.48-19.82-2.36-29.83,.09-19.62,2.3-38.87,10.21-57.08,2.54-5.83,5.79-11.23,10.06-15.99,13.68-15.27,34.91-15.44,48.7-.25,9.96,10.97,14.62,24.47,17.33,38.67,5.48,28.75,4.93,57.27-4.43,85.26Z"/><path class="cls-8" d="M463.83,944.47c-11.18-.05-18.37,6.91-18.43,17.83-.06,10.77,6.78,17.53,17.93,17.73,11.31,.21,18.58-6.63,18.62-17.52,.05-11.08-6.9-18-18.12-18.05Zm-.42,28.03c-6.43-.11-9.74-3.8-9.55-10.66,.18-6.44,3.7-9.97,9.9-9.94,6.25,.03,9.92,3.96,9.88,10.56-.04,6.62-3.64,10.14-10.24,10.03Z"/><path class="cls-8" d="M848.45,948.33c-1.15-2.4-2.46-3.49-5.25-3.48-2.76,0-4.17,.99-5.27,3.45-2.1,4.69-4.53,9.24-6.83,13.85-2.78,5.58-5.55,11.17-9.04,18.19,4.59-2.02,9.42,1.67,11.02-3.95,1.34-4.73,4.33-5.55,8.53-5.09,2.14,.23,4.32,.11,6.48,.02,1.8-.08,3.17,.13,3.7,2.25,1.51,6,5.66,7.05,11.72,5.38-5.14-10.39-10.2-20.45-15.07-30.61Zm-9.19,16.01c1.24-2.76,2.4-5.35,3.85-8.57,1.49,3.13,2.73,5.72,4.05,8.47-2.74,.84-5.1,.71-7.89,.09Z"/></g></g></svg>